<svg width="429" height="130" viewBox="0 0 429 130" fill="none" xmlns="http://www.w3.org/2000/svg">
<g filter="url(#filter0_d_0_9)">
<path d="M90.439 31.368L86.695 36.48V75H79.999V36.48L76.183 31.368H63.655V24.6H79.423L83.311 29.712L87.199 24.6H103.183V31.368H90.439ZM115.56 60.096V65.784L119.088 68.376H133.56L138.528 64.2L142.848 69.384L135.936 75H116.856L108.936 69.096V46.488L116.856 40.656H135.936L143.208 46.632V60.096H115.56ZM136.584 49.728L133.56 47.208H119.088L115.56 49.872V53.76H136.584V49.728ZM176.808 75.144H157.656L149.664 69.24V46.488L157.656 40.584H176.808L184.08 46.632V53.688H177.456V49.728L174.432 47.208H159.816L156.288 49.872V65.856L159.816 68.52H174.432L177.456 66V62.04H184.08V69.096L176.808 75.144ZM216.849 75V49.944L213.393 47.28H201.729L197.841 51.528V74.928H191.289V24.6H197.841V42.744L200.001 40.584H215.553L223.473 46.56V75H216.849ZM259.193 75L248.321 31.44H240.473L236.585 36.552V74.928H229.961V34.248L237.089 24.672H253.577L264.377 68.232H265.529V24.6H272.153V75H259.193ZM279.392 36.408V29.568H285.224V36.408H279.392ZM279.32 75V40.584H285.152V75H279.32ZM305.934 47.352V75H299.454V47.352H291.678V40.584H299.454V34.104L306.366 24.6H313.998V31.296H309.534L305.934 36.408V40.584H313.998V47.352H305.934ZM328.534 88.32L323.422 84.072L331.126 74.496L319.03 60.312V40.584H325.654V57.792L335.158 68.952H335.518L344.374 58.08V40.584H350.926V60.456L328.534 88.32Z" fill="#3CBBFF"/>
</g>
<g filter="url(#filter1_d_0_9)">
<line x1="17" y1="105.176" x2="151.719" y2="105.176" stroke="white" stroke-width="4"/>
<line x1="277.281" y1="105.176" x2="412" y2="105.176" stroke="white" stroke-width="4"/>
<path d="M188.442 113L189.192 110H189.942L191.934 108.008L192.942 104H188.442L188.067 105.5L182.067 111.5H177.567L178.317 108.5H180.567L185.067 104H179.442L180.192 101H186.192L186.567 99.5H189.567L189.192 101H196.692L194.442 110L191.442 113H188.442ZM190.692 99.5L191.067 98H194.067L193.692 99.5H190.692ZM194.067 99.5L194.442 98H197.442L197.067 99.5H194.067ZM202.317 113L203.817 107H196.692L197.442 104H209.442L211.434 102.008L211.692 101H214.692L213.942 104L210.942 107H206.817L205.317 113H202.317ZM220.692 107L217.692 104H215.442L216.192 101H219.192L222.192 104H225.192L224.442 107H220.692ZM218.442 113L219.192 110H222.567L229.059 103.508L229.692 101H232.692L231.567 105.5L224.067 113H218.442ZM236.442 113L237.192 110H240.567L246.567 104H239.067L236.067 107H232.692L233.442 104H234.567L237.567 101L237.942 99.5H240.942L240.567 101H250.692L249.567 105.5L242.067 113H236.442Z" fill="white"/>
</g>
<defs>
<filter id="filter0_d_0_9" x="46.655" y="7.6" width="321.271" height="97.72" filterUnits="userSpaceOnUse" color-interpolation-filters="sRGB">
<feFlood flood-opacity="0" result="BackgroundImageFix"/>
<feColorMatrix in="SourceAlpha" type="matrix" values="0 0 0 0 0 0 0 0 0 0 0 0 0 0 0 0 0 0 127 0" result="hardAlpha"/>
<feOffset/>
<feGaussianBlur stdDeviation="8.5"/>
<feComposite in2="hardAlpha" operator="out"/>
<feColorMatrix type="matrix" values="0 0 0 0 0.235294 0 0 0 0 0.733333 0 0 0 0 1 0 0 0 1 0"/>
<feBlend mode="normal" in2="BackgroundImageFix" result="effect1_dropShadow_0_9"/>
<feBlend mode="normal" in="SourceGraphic" in2="effect1_dropShadow_0_9" result="shape"/>
</filter>
<filter id="filter1_d_0_9" x="0" y="81" width="429" height="49" filterUnits="userSpaceOnUse" color-interpolation-filters="sRGB">
<feFlood flood-opacity="0" result="BackgroundImageFix"/>
<feColorMatrix in="SourceAlpha" type="matrix" values="0 0 0 0 0 0 0 0 0 0 0 0 0 0 0 0 0 0 127 0" result="hardAlpha"/>
<feOffset/>
<feGaussianBlur stdDeviation="8.5"/>
<feComposite in2="hardAlpha" operator="out"/>
<feColorMatrix type="matrix" values="0 0 0 0 1 0 0 0 0 1 0 0 0 0 1 0 0 0 1 0"/>
<feBlend mode="normal" in2="BackgroundImageFix" result="effect1_dropShadow_0_9"/>
<feBlend mode="normal" in="SourceGraphic" in2="effect1_dropShadow_0_9" result="shape"/>
</filter>
</defs>
</svg>
